<svg width="14" height="14" viewBox="0 0 14 14" fill="none" xmlns="http://www.w3.org/2000/svg">
<path d="M10.8047 7.19532C10.7429 7.13336 10.6694 7.0842 10.5885 7.05066C10.5076 7.01712 10.4209 6.99986 10.3334 6.99986C10.2458 6.99986 10.1591 7.01712 10.0783 7.05066C9.99739 7.0842 9.92392 7.13336 9.86206 7.19532L8.79939 8.25799C8.30673 8.11132 7.38739 7.77799 6.80473 7.19532C6.22206 6.61266 5.88873 5.69332 5.74206 5.20066L6.80473 4.13799C6.86669 4.07613 6.91585 4.00266 6.94939 3.92179C6.98293 3.84091 7.00019 3.75421 7.00019 3.66666C7.00019 3.5791 6.98293 3.49241 6.94939 3.41153C6.91585 3.33065 6.86669 3.25718 6.80473 3.19533L4.13806 0.528658C4.0762 0.466694 4.00273 0.417536 3.92186 0.383995C3.84098 0.350455 3.75428 0.333191 3.66673 0.333191C3.57917 0.333191 3.49247 0.350455 3.4116 0.383995C3.33072 0.417536 3.25725 0.466694 3.19539 0.528658L1.38739 2.33666C1.13406 2.58999 0.991393 2.93799 0.996726 3.29332C1.01206 4.24266 1.26339 7.53999 3.86206 10.1387C6.46073 12.7373 9.75806 12.988 10.7081 13.004H10.7267C11.0787 13.004 11.4114 12.8653 11.6634 12.6133L13.4714 10.8053C13.5334 10.7435 13.5825 10.67 13.6161 10.5891C13.6496 10.5082 13.6669 10.4215 13.6669 10.334C13.6669 10.2464 13.6496 10.1597 13.6161 10.0789C13.5825 9.99799 13.5334 9.92452 13.4714 9.86266L10.8047 7.19532ZM10.7201 11.67C9.88806 11.656 7.04139 11.4327 4.80473 9.19532C2.56073 6.95132 2.34339 4.09466 2.33006 3.27933L3.66673 1.94266L5.39073 3.66666L4.52873 4.52866C4.45037 4.60696 4.39275 4.70355 4.36109 4.8097C4.32943 4.91586 4.32473 5.02823 4.34739 5.13666C4.36339 5.21332 4.75473 7.03132 5.86139 8.13799C6.96806 9.24466 8.78606 9.63599 8.86273 9.65199C8.97109 9.6753 9.08358 9.67097 9.18982 9.63939C9.29607 9.60782 9.39267 9.55002 9.47073 9.47132L10.3334 8.60932L12.0574 10.3333L10.7201 11.67Z" fill="black"/>
</svg>
